<svg viewBox="0 0 208 42" fill="none" xmlns="http://www.w3.org/2000/svg">
  <path d="M15.2141 11.6772L12.184 8.64709L0 20.8311L12.184 33.0151L14.8763 30.3228L5.72245 21.1689L15.2141 11.6772Z" fill="#003F2A"/>
  <path fill-rule="evenodd" clip-rule="evenodd" d="M22.2141 8.98493L10.0301 21.1689L22.2141 33.3529L34.3981 21.1689L22.2141 8.98493ZM22.2141 14.4038L15.4491 21.1689L22.2141 27.934L28.9792 21.1689L22.2141 14.4038Z" fill="#003F2A"/>
  <path fill-rule="evenodd" clip-rule="evenodd" d="M22.2141 8.98493L10.0301 21.1689L22.2141 33.3529L34.3981 21.1689L22.2141 8.98493ZM22.2141 14.4038L15.4491 21.1689L22.2141 27.934L28.9792 21.1689L22.2141 14.4038Z" fill="#1BBF82"/>
  <path d="M53.7739 30.504C52.6859 30.504 51.7339 30.304 50.9179 29.904C50.1179 29.488 49.4939 28.896 49.0459 28.128C48.6139 27.344 48.3979 26.432 48.3979 25.392V17.616C48.3979 16.56 48.6139 15.648 49.0459 14.88C49.4939 14.112 50.1179 13.528 50.9179 13.128C51.7339 12.712 52.6859 12.504 53.7739 12.504C54.8619 12.504 55.8059 12.712 56.6059 13.128C57.4059 13.544 58.0219 14.136 58.4539 14.904C58.9019 15.656 59.1259 16.56 59.1259 17.616H56.5339C56.5339 16.704 56.2939 16.008 55.8139 15.528C55.3339 15.048 54.6539 14.808 53.7739 14.808C52.8939 14.808 52.2059 15.048 51.7099 15.528C51.2299 16.008 50.9899 16.696 50.9899 17.592V25.392C50.9899 26.288 51.2299 26.984 51.7099 27.48C52.2059 27.96 52.8939 28.2 53.7739 28.2C54.6539 28.2 55.3339 27.96 55.8139 27.48C56.2939 26.984 56.5339 26.288 56.5339 25.392H59.1259C59.1259 26.432 58.9019 27.336 58.4539 28.104C58.0219 28.872 57.4059 29.464 56.6059 29.88C55.8059 30.296 54.8619 30.504 53.7739 30.504Z" fill="white"/>
  <path d="M68.0686 30.48C66.9806 30.48 66.0366 30.272 65.2366 29.856C64.4366 29.44 63.8206 28.848 63.3886 28.08C62.9566 27.312 62.7406 26.408 62.7406 25.368V21.96C62.7406 20.904 62.9566 20 63.3886 19.248C63.8206 18.48 64.4366 17.888 65.2366 17.472C66.0366 17.056 66.9806 16.848 68.0686 16.848C69.1566 16.848 70.1006 17.056 70.9006 17.472C71.7006 17.888 72.3166 18.48 72.7486 19.248C73.1806 20 73.3966 20.904 73.3966 21.96V25.368C73.3966 26.408 73.1806 27.312 72.7486 28.08C72.3166 28.848 71.7006 29.44 70.9006 29.856C70.1006 30.272 69.1566 30.48 68.0686 30.48ZM68.0686 28.2C68.9486 28.2 69.6286 27.96 70.1086 27.48C70.5886 26.984 70.8286 26.28 70.8286 25.368V21.96C70.8286 21.032 70.5886 20.328 70.1086 19.848C69.6286 19.368 68.9486 19.128 68.0686 19.128C67.2046 19.128 66.5246 19.368 66.0286 19.848C65.5486 20.328 65.3086 21.032 65.3086 21.96V25.368C65.3086 26.28 65.5486 26.984 66.0286 27.48C66.5246 27.96 67.2046 28.2 68.0686 28.2Z" fill="white"/>
  <path d="M82.5552 30.504C81.4672 30.504 80.5072 30.304 79.6752 29.904C78.8592 29.488 78.2272 28.896 77.7792 28.128C77.3472 27.344 77.1312 26.432 77.1312 25.392V21.936C77.1312 20.88 77.3472 19.968 77.7792 19.2C78.2272 18.432 78.8592 17.848 79.6752 17.448C80.5072 17.032 81.4672 16.824 82.5552 16.824C84.1392 16.824 85.4112 17.24 86.3712 18.072C87.3312 18.904 87.8352 20.04 87.8832 21.48H85.2912C85.2432 20.728 84.9792 20.144 84.4992 19.728C84.0192 19.312 83.3712 19.104 82.5552 19.104C81.6752 19.104 80.9792 19.352 80.4672 19.848C79.9552 20.328 79.6992 21.016 79.6992 21.912V25.392C79.6992 26.288 79.9552 26.984 80.4672 27.48C80.9792 27.976 81.6752 28.224 82.5552 28.224C83.3712 28.224 84.0192 28.016 84.4992 27.6C84.9792 27.184 85.2432 26.6 85.2912 25.848H87.8832C87.8352 27.288 87.3312 28.424 86.3712 29.256C85.4112 30.088 84.1392 30.504 82.5552 30.504Z" fill="white"/>
  <path d="M96.8498 30.48C95.7618 30.48 94.8178 30.272 94.0178 29.856C93.2178 29.44 92.6018 28.848 92.1698 28.08C91.7378 27.312 91.5218 26.408 91.5218 25.368V21.96C91.5218 20.904 91.7378 20 92.1698 19.248C92.6018 18.48 93.2178 17.888 94.0178 17.472C94.8178 17.056 95.7618 16.848 96.8498 16.848C97.9378 16.848 98.8818 17.056 99.6818 17.472C100.482 17.888 101.098 18.48 101.53 19.248C101.962 20 102.178 20.904 102.178 21.96V25.368C102.178 26.408 101.962 27.312 101.53 28.08C101.098 28.848 100.482 29.44 99.6818 29.856C98.8818 30.272 97.9378 30.48 96.8498 30.48ZM96.8498 28.2C97.7298 28.2 98.4098 27.96 98.8898 27.48C99.3698 26.984 99.6098 26.28 99.6098 25.368V21.96C99.6098 21.032 99.3698 20.328 98.8898 19.848C98.4098 19.368 97.7298 19.128 96.8498 19.128C95.9858 19.128 95.3058 19.368 94.8098 19.848C94.3298 20.328 94.0898 21.032 94.0898 21.96V25.368C94.0898 26.28 94.3298 26.984 94.8098 27.48C95.3058 27.96 95.9858 28.2 96.8498 28.2Z" fill="white"/>
  <path d="M106.056 30.264V12.744H108.648V20.04H110.976L114.552 12.744H117.384L113.256 21.144L117.576 30.264H114.672L110.928 22.368H108.648V30.264H106.056Z" fill="white"/>
  <path d="M120.375 30.264V27.912H125.007V19.416H120.975V17.064H127.527V27.912H131.775V30.264H120.375ZM126.015 14.784C125.455 14.784 125.007 14.64 124.671 14.352C124.335 14.048 124.167 13.648 124.167 13.152C124.167 12.64 124.335 12.24 124.671 11.952C125.007 11.648 125.455 11.496 126.015 11.496C126.575 11.496 127.023 11.648 127.359 11.952C127.695 12.24 127.863 12.64 127.863 13.152C127.863 13.648 127.695 14.048 127.359 14.352C127.023 14.64 126.575 14.784 126.015 14.784Z" fill="white"/>
  <path d="M141.462 30.264C140.262 30.264 139.326 29.936 138.654 29.28C137.982 28.624 137.646 27.712 137.646 26.544V19.416H133.998V17.064H137.646V13.344H140.238V17.064H145.398V19.416H140.238V26.544C140.238 27.456 140.678 27.912 141.558 27.912H145.158V30.264H141.462Z" fill="white"/>
  <path d="M153.956 30.48C153.012 30.48 152.18 30.328 151.46 30.024C150.756 29.72 150.196 29.304 149.78 28.776C149.38 28.232 149.148 27.592 149.084 26.856H151.676C151.74 27.288 151.972 27.64 152.372 27.912C152.772 28.168 153.3 28.296 153.956 28.296H154.988C155.772 28.296 156.364 28.136 156.764 27.816C157.164 27.496 157.364 27.072 157.364 26.544C157.364 26.032 157.18 25.632 156.812 25.344C156.46 25.04 155.932 24.84 155.228 24.744L153.524 24.48C152.116 24.256 151.076 23.856 150.404 23.28C149.748 22.688 149.42 21.816 149.42 20.664C149.42 19.448 149.812 18.512 150.596 17.856C151.396 17.184 152.572 16.848 154.124 16.848H155.036C156.412 16.848 157.508 17.168 158.324 17.808C159.156 18.432 159.628 19.272 159.74 20.328H157.148C157.084 19.944 156.868 19.632 156.5 19.392C156.148 19.152 155.66 19.032 155.036 19.032H154.124C153.372 19.032 152.82 19.176 152.468 19.464C152.132 19.736 151.964 20.144 151.964 20.688C151.964 21.168 152.116 21.528 152.42 21.768C152.724 22.008 153.196 22.176 153.836 22.272L155.588 22.56C157.076 22.768 158.164 23.184 158.852 23.808C159.556 24.416 159.908 25.304 159.908 26.472C159.908 27.736 159.492 28.72 158.66 29.424C157.844 30.128 156.62 30.48 154.988 30.48H153.956Z" fill="white"/>
</svg>
