<svg xmlns="http://www.w3.org/2000/svg" version="1.1" xmlns:xlink="http://www.w3.org/1999/xlink" xmlns:svgjs="http://svgjs.dev/svgjs" width="1000" height="1000"><g clip-path="url(#SvgjsClipPath1082)"><rect width="1000" height="1000" fill="#ffffff"></rect><g transform="matrix(25.714285714285715,0,0,25.714285714285715,50,165.71428571428572)"><svg xmlns="http://www.w3.org/2000/svg" version="1.1" xmlns:xlink="http://www.w3.org/1999/xlink" xmlns:svgjs="http://svgjs.dev/svgjs" width="35" height="26"><svg width="35" height="26" viewBox="0 0 35 26" fill="none" xmlns="http://www.w3.org/2000/svg">
<path d="M15.2141 3.67723L12.184 0.647095L0 12.8311L12.184 25.0151L14.8763 22.3228L5.72245 13.1689L15.2141 3.67723Z" fill="#003F2A"></path>
<path fill-rule="evenodd" clip-rule="evenodd" d="M22.2141 0.984932L10.0301 13.1689L22.2141 25.3529L34.3981 13.1689L22.2141 0.984932ZM22.2141 6.40385L15.4491 13.1689L22.2141 19.934L28.9792 13.1689L22.2141 6.40385Z" fill="#003F2A"></path>
<path fill-rule="evenodd" clip-rule="evenodd" d="M22.2141 0.984932L10.0301 13.1689L22.2141 25.3529L34.3981 13.1689L22.2141 0.984932ZM22.2141 6.40385L15.4491 13.1689L22.2141 19.934L28.9792 13.1689L22.2141 6.40385Z" fill="#008D5E"></path>
</svg></svg></g></g><defs><clipPath id="SvgjsClipPath1082"><rect width="1000" height="1000" x="0" y="0" rx="200" ry="200"></rect></clipPath></defs></svg>